# xmcd
#
# Track frame offsets: 
#        150
#        19796
#        39117
#        52374
#        65695
#        90788
#        104346
#        123021
#        140067
#        160134
#        173956
#
# Disc length: 2597 seconds
#
# Revision: 0
# Processed by: cddbd v1.5.2PL0 Copyright (c) Steve Scherf et al.
# Submitted via: ExactAudioCopyFreeDBPlugin 1.0
#
DISCID=8d0a230b
DTITLE=Dave Ramont - TAW
DYEAR=2009
DGENRE=Alternative Country
TTITLE0=Garage Sale Pillow
TTITLE1=Sleepy Dreamin'
TTITLE2=Bag O' Soup
TTITLE3=Carrion Flower
TTITLE4=Blanket Full O' Bees
TTITLE5=Caterwaul
TTITLE6=Lisanne
TTITLE7=Fish In A Barrel
TTITLE8=Note
TTITLE9=Black Licorice
TTITLE10=Goldfinch
EXTD=
EXTT0=
EXTT1=
EXTT2=
EXTT3=
EXTT4=
EXTT5=
EXTT6=
EXTT7=
EXTT8=
EXTT9=
EXTT10=
PLAYORDER=
